<svg xmlns="http://www.w3.org/2000/svg" xmlns:xlink="http://www.w3.org/1999/xlink" version="1.1" x="0px" y="0px" viewBox="0 0 252.422 211.545" enable-background="new 0 0 252.422 211.545" xml:space="preserve"><g><rect x="114.587" width="19.527" height="51.123"></rect><polygon points="202.316,129.396 252.422,119.274 248.562,100.144 198.449,110.266  "></polygon><polygon points="221.184,44.158 207.378,30.359 171.232,66.504 185.039,80.31  "></polygon><polygon points="53.972,110.266 3.86,100.144 0,119.274 50.105,129.396  "></polygon><path d="M191.594,179.802l-17.314-94.16c-1.86-10.203-12.949-17.871-24.888-17.871h-40.18c-11.946,0-23.013,7.668-24.873,17.871   l-17.329,94.16c-0.117,0.674-0.095,1.304-0.176,9.741h-23.54v22.002H215.31v-22.002h-23.54   C191.696,181.105,191.719,180.476,191.594,179.802z M126.929,178.952V81.643h17.951c9.258,0,17.856,5.933,19.3,13.843l13.433,73.03   c0.103,0.542,0.073,1.069,0.139,10.437H126.929z"></path><polygon points="81.189,66.504 45.037,30.359 31.238,44.158 67.383,80.31  "></polygon></g></svg>